<?xml version="1.0" standalone="no"?>
<!DOCTYPE svg PUBLIC "-//W3C//DTD SVG 20010904//EN"
 "http://www.w3.org/TR/2001/REC-SVG-20010904/DTD/svg10.dtd">
<svg version="1.0" xmlns="http://www.w3.org/2000/svg"
 width="533.000000pt" height="458.000000pt" viewBox="0 0 533.000000 458.000000"
 preserveAspectRatio="xMidYMid meet">

<g transform="translate(0.000000,458.000000) scale(0.100000,-0.100000)"
fill="#000000" stroke="none">
<path d="M2354 4158 c3 -13 6 -65 6 -115 0 -55 4 -93 10 -93 11 0 13 112 4
184 -4 25 -11 46 -17 46 -5 0 -7 -10 -3 -22z"/>
<path d="M2826 4046 c-18 -120 -20 -144 -7 -131 5 6 14 48 21 95 6 47 14 97
17 113 3 15 1 27 -4 27 -6 0 -18 -47 -27 -104z"/>
<path d="M1854 4024 c9 -65 46 -174 57 -174 7 0 8 8 4 18 -3 9 -17 55 -31 101
-27 94 -40 117 -30 55z"/>
<path d="M3291 3840 c-24 -49 -41 -95 -39 -102 3 -7 26 32 51 86 51 108 51
106 39 106 -5 0 -28 -40 -51 -90z"/>
<path d="M1417 3913 c-3 -4 40 -64 96 -132 56 -68 103 -118 105 -112 3 8 -114
160 -188 244 -4 5 -10 5 -13 0z"/>
<path d="M2395 3833 c-137 -16 -335 -67 -335 -85 0 -11 0 -11 82 16 127 41
204 51 378 51 122 0 187 -5 250 -19 262 -56 515 -174 758 -353 40 -30 78 -53
84 -51 20 7 -178 146 -325 229 -280 159 -636 244 -892 212z"/>
<path d="M2211 3721 c-8 -6 -9 -11 -3 -15 6 -3 14 -1 17 5 9 14 2 20 -14 10z"/>
<path d="M1806 3663 c-55 -30 -132 -75 -170 -101 -82 -53 -236 -204 -236 -229
0 -11 29 13 75 64 88 95 185 167 338 248 59 31 107 61 107 66 0 14 -8 11 -114
-48z"/>
<path d="M1985 3653 c-59 -30 -60 -31 -52 -39 6 -6 117 53 117 62 0 8 -16 3
-65 -23z"/>
<path d="M3701 3583 c-51 -43 -88 -79 -82 -81 13 -4 191 138 191 153 0 14 -23
-1 -109 -72z"/>
<path d="M2160 3640 c-8 -5 -12 -12 -9 -15 8 -8 39 5 39 16 0 11 -11 11 -30
-1z"/>
<path d="M1238 3500 c51 -50 100 -90 109 -90 14 0 -66 80 -153 154 -70 58 -44
20 44 -64z"/>
<path d="M1805 3438 c-74 -40 -48 -141 36 -141 76 0 93 110 22 142 -29 13 -33
13 -58 -1z"/>
<path d="M3261 3364 c-28 -36 -26 -60 8 -95 35 -34 59 -36 95 -8 19 15 26 30
26 54 0 70 -87 103 -129 49z"/>
<path d="M3690 3302 c0 -4 16 -29 35 -57 168 -236 255 -570 225 -860 -13 -122
-37 -221 -81 -337 -32 -85 -33 -88 -21 -88 19 0 81 188 107 325 20 103 20 343
1 452 -30 169 -116 375 -213 510 -43 61 -53 71 -53 55z"/>
<path d="M1314 3215 c-135 -208 -198 -438 -198 -725 0 -174 18 -297 65 -440
43 -131 136 -286 218 -364 l30 -29 -29 -27 c-26 -24 -30 -35 -30 -82 l0 -54
-72 -59 c-39 -32 -66 -61 -60 -63 7 -2 36 17 66 42 29 25 56 46 60 46 3 0 6
-33 6 -74 0 -50 4 -76 13 -79 10 -4 10 -6 0 -6 -8 -1 -13 -16 -13 -42 0 -35 3
-40 18 -35 12 5 11 1 -5 -11 -21 -17 -22 -26 -22 -192 -1 -109 3 -178 9 -186
8 -9 8 -15 0 -20 -5 -3 -10 -31 -10 -61 0 -41 4 -54 15 -54 9 0 15 9 15 25 0
18 5 25 20 25 19 0 20 7 20 164 0 122 -3 166 -12 169 -10 4 -10 6 0 6 9 1 12
38 12 149 0 136 -1 148 -20 160 -11 7 -20 17 -20 23 0 6 9 8 20 4 18 -6 20 -2
20 44 0 67 13 97 47 107 16 6 187 5 416 -1 l389 -10 24 -28 c24 -28 24 -30 25
-250 0 -190 2 -217 13 -187 7 19 12 47 11 62 -2 30 2 33 24 19 11 -7 12 -13 4
-23 -6 -7 -16 -32 -22 -55 -7 -24 -16 -43 -21 -43 -11 0 -13 -56 -4 -113 6
-34 24 -53 24 -24 0 6 7 21 15 31 14 18 15 16 15 -30 0 -27 -4 -44 -8 -39 -4
6 -14 10 -22 10 -12 0 -14 -14 -12 -68 1 -41 -2 -67 -8 -67 -5 0 -10 -9 -10
-19 0 -65 -44 -85 -164 -77 -50 3 -221 8 -381 12 -266 5 -292 7 -317 25 -23
16 -28 17 -28 4 0 -9 -9 -15 -25 -15 -18 0 -25 -5 -25 -20 0 -12 10 -25 25
-32 23 -10 25 -17 25 -71 0 -60 0 -60 21 -41 15 14 20 28 18 61 -2 23 0 45 4
49 4 4 8 -10 8 -32 2 -31 3 -33 6 -11 l4 29 242 -7 c133 -4 328 -8 433 -9 222
-1 199 -10 295 116 50 65 59 83 58 115 -1 21 -4 28 -6 17 -2 -12 -24 -45 -49
-74 l-44 -52 0 430 0 429 40 27 c22 14 42 26 45 26 3 0 4 -154 3 -342 l-3
-343 -2 293 c-2 170 -7 292 -13 292 -16 0 -21 -81 -18 -270 2 -111 -2 -225
-10 -286 -7 -55 -10 -108 -6 -118 6 -16 8 -16 25 0 11 9 19 27 19 38 0 17 2
18 10 6 6 -10 10 28 12 115 l3 130 130 6 c120 6 263 24 274 35 13 13 -14 15
-61 4 -29 -7 -119 -14 -200 -17 l-148 -6 0 263 c0 233 -2 261 -16 256 -8 -3
-12 -2 -9 4 7 12 -224 11 -560 0 -200 -7 -188 -8 133 -5 194 1 349 -1 345 -5
-29 -26 -115 -40 -247 -40 -250 0 -607 13 -594 21 20 13 -9 11 -70 -5 l-53
-13 -49 51 c-135 142 -199 267 -248 485 -23 102 -26 139 -26 301 0 201 12 293
61 437 31 93 101 237 151 311 19 28 33 55 29 58 -3 4 -32 -33 -63 -81z m1026
-1610 c0 -8 -4 -15 -10 -15 -5 0 -7 7 -4 15 4 8 8 15 10 15 2 0 4 -7 4 -15z"/>
<path d="M2234 3248 c-16 -25 94 -79 206 -100 70 -13 251 -4 355 17 89 19 90
19 82 38 -4 11 -20 10 -94 -5 -110 -24 -297 -28 -373 -9 -30 8 -81 27 -112 42
-40 20 -59 25 -64 17z"/>
<path d="M4060 3220 c-87 -23 -151 -50 -145 -60 3 -4 33 3 67 15 35 12 89 28
121 35 31 7 57 17 57 22 0 11 -14 10 -100 -12z"/>
<path d="M940 3192 c0 -4 41 -29 90 -55 50 -27 90 -44 90 -39 0 9 -159 102
-174 102 -3 0 -6 -3 -6 -8z"/>
<path d="M840 2812 c0 -6 42 -24 93 -40 112 -37 137 -42 137 -32 0 4 -46 22
-102 41 -132 43 -128 42 -128 31z"/>
<path d="M4118 2753 c-130 -4 -147 -23 -20 -23 101 0 164 9 156 21 -3 5 -11 8
-17 7 -7 -1 -60 -4 -119 -5z"/>
<path d="M1226 2546 c-12 -56 0 -209 23 -290 32 -109 138 -300 149 -267 2 6
-8 25 -21 43 -38 49 -95 168 -113 234 -8 33 -19 118 -23 189 -6 106 -8 123
-15 91z"/>
<path d="M3870 2518 c0 -38 3 -49 10 -38 13 20 13 77 0 85 -6 4 -10 -14 -10
-47z"/>
<path d="M3750 2425 c0 -8 5 -15 10 -15 6 0 10 7 10 15 0 8 -4 15 -10 15 -5 0
-10 -7 -10 -15z"/>
<path d="M815 2350 c-4 -6 32 -10 100 -10 68 0 104 4 100 10 -3 6 -48 10 -100
10 -52 0 -97 -4 -100 -10z"/>
<path d="M3815 2273 c-25 -189 -101 -377 -200 -495 -59 -71 -62 -92 -5 -35 91
90 173 262 204 424 25 132 27 153 17 153 -5 0 -13 -21 -16 -47z"/>
<path d="M4010 2261 c0 -11 54 -37 143 -67 81 -28 77 -27 77 -15 0 5 -30 19
-67 32 -38 12 -85 30 -105 40 -42 21 -48 23 -48 10z"/>
<path d="M1430 2226 c0 -9 5 -16 10 -16 6 0 10 4 10 9 0 6 -4 13 -10 16 -5 3
-10 -1 -10 -9z"/>
<path d="M3676 2168 c-10 -40 -6 -54 9 -28 8 14 14 31 15 38 0 21 -17 13 -24
-10z"/>
<path d="M1520 1975 c0 -17 32 -65 40 -60 6 3 0 19 -12 36 -22 29 -28 34 -28
24z"/>
<path d="M1045 1917 c-136 -58 -131 -55 -122 -63 3 -4 58 15 122 41 104 43
134 60 124 69 -2 2 -58 -19 -124 -47z"/>
<path d="M3805 1868 c-4 -13 -22 -53 -41 -90 -36 -71 -31 -94 6 -31 17 29 60
129 60 141 0 1 -4 2 -9 2 -5 0 -13 -10 -16 -22z"/>
<path d="M1490 1819 c0 -14 61 -99 72 -99 13 0 10 7 -28 60 -37 52 -44 58 -44
39z"/>
<path d="M3855 1811 c11 -19 137 -102 148 -98 6 2 -22 27 -62 55 -70 49 -99
64 -86 43z"/>
<path d="M1688 1703 c7 -3 16 -2 19 1 4 3 -2 6 -13 5 -11 0 -14 -3 -6 -6z"/>
<path d="M1615 1690 c-25 -11 1 -11 35 0 20 6 21 8 5 8 -11 0 -29 -3 -40 -8z"/>
<path d="M4015 1675 c-27 -14 -56 -32 -62 -42 -9 -11 -13 -60 -13 -154 l0
-137 -30 -7 c-17 -4 -44 -18 -60 -32 l-30 -25 0 -142 c0 -97 4 -146 12 -154 9
-9 9 -12 0 -12 -7 0 -12 -16 -12 -40 0 -25 5 -40 13 -40 8 0 9 -2 1 -8 -20
-12 -24 -519 -4 -507 6 3 10 17 10 31 0 21 4 24 20 19 20 -6 20 -2 20 314 0
310 -1 321 -20 331 -11 6 -20 17 -20 25 0 18 12 19 28 3 9 -9 12 2 12 50 0 54
4 66 26 89 l26 26 127 -6 c69 -4 181 -7 249 -7 121 0 123 0 112 -21 -9 -15 -8
-24 1 -35 16 -20 24 -18 71 16 39 28 46 30 137 30 69 0 103 -4 117 -15 12 -8
24 -12 27 -9 3 3 5 -1 4 -8 -4 -104 6 -458 13 -440 5 12 10 38 12 57 1 26 7
35 20 35 10 0 18 -7 18 -15 0 -8 -4 -15 -9 -15 -5 0 -12 -15 -16 -33 -4 -17
-14 -43 -22 -56 -11 -18 -14 -40 -10 -83 5 -58 16 -85 24 -62 2 6 10 20 18 30
13 17 14 14 14 -31 -1 -27 -3 -43 -6 -34 -2 11 -11 15 -22 12 -16 -4 -19 -18
-23 -89 -3 -65 -9 -91 -25 -112 l-20 -27 -189 -1 c-314 -1 -625 14 -645 32
-15 13 -17 13 -23 -1 -4 -11 -13 -14 -25 -10 -29 9 -33 -9 -10 -39 21 -26 62
-35 74 -15 5 7 11 5 18 -5 10 -13 74 -16 428 -21 229 -3 427 -3 442 0 17 5 50
38 96 98 l71 90 0 448 c0 495 5 459 -66 459 -19 0 -34 -4 -34 -9 0 -18 -87
-41 -154 -41 -69 0 -69 0 -51 20 18 20 18 22 1 38 -16 16 -18 16 -47 -1 -21
-11 -56 -18 -107 -19 l-77 -2 68 -3 c59 -3 67 -6 57 -18 -10 -13 -58 -15 -276
-15 -148 0 -264 4 -264 9 0 5 26 16 58 24 l57 16 -49 -6 -49 -6 7 64 c3 35 2
78 -3 94 l-8 30 -8 -27 c-4 -15 -8 -60 -9 -100 l-1 -73 -32 -3 -33 -3 0 89 c0
129 6 149 54 183 37 27 41 28 47 12 5 -12 8 -3 8 25 1 23 0 42 -1 42 -2 0 -25
-12 -53 -25z m953 -717 l-3 -353 -5 310 c-4 257 -7 306 -18 288 -9 -16 -12
-80 -12 -233 1 -115 -4 -255 -10 -310 -7 -55 -9 -107 -6 -116 6 -15 8 -15 26
1 10 9 21 27 23 39 2 11 5 -1 6 -27 1 -43 -3 -53 -41 -98 -24 -27 -46 -49 -50
-49 -5 0 -8 187 -8 416 l0 417 36 33 c66 63 64 73 62 -318z m-178 322 c0 -5
-4 -10 -10 -10 -5 0 -10 5 -10 10 0 6 5 10 10 10 6 0 10 -4 10 -10z m-925
-410 c3 -5 1 -10 -4 -10 -6 0 -11 5 -11 10 0 6 2 10 4 10 3 0 8 -4 11 -10z
m65 -530 c0 -5 -4 -10 -10 -10 -5 0 -10 5 -10 10 0 6 5 10 10 10 6 0 10 -4 10
-10z m830 -10 c0 -5 -5 -10 -11 -10 -5 0 -7 5 -4 10 3 6 8 10 11 10 2 0 4 -4
4 -10z"/>
<path d="M1771 1452 c-23 -22 -29 -40 -35 -95 -6 -65 -40 -169 -105 -327 -36
-86 -35 -83 -18 -74 6 4 0 -5 -15 -21 -16 -15 -28 -31 -28 -36 0 -4 -16 -17
-35 -29 -37 -23 -47 -58 -22 -78 38 -31 194 -25 228 9 21 21 23 28 9 49 -8 12
-13 13 -29 3 -17 -11 -19 -9 -17 32 1 24 5 47 10 52 12 12 195 6 212 -8 22
-18 17 -48 -11 -61 -33 -15 -35 -62 -2 -80 25 -14 235 -18 279 -5 15 4 35 19
45 33 17 26 16 27 -16 53 -26 22 -43 27 -82 26 -27 -1 -49 2 -49 5 0 12 49 30
65 24 8 -4 15 -3 15 1 0 4 -39 98 -87 209 -89 205 -137 291 -162 291 -8 0 -19
9 -25 20 -16 29 -27 35 -64 35 -23 0 -42 -8 -61 -28z m159 -62 c0 -13 -11 -13
-30 0 -12 8 -11 10 8 10 12 0 22 -4 22 -10z m-104 -188 c19 -12 66 -113 60
-128 -4 -9 -22 -14 -56 -14 -38 0 -50 -4 -50 -15 0 -24 -20 -17 -21 8 -2 36 1
49 23 105 21 53 25 57 44 44z m222 -94 c7 -7 12 -21 12 -32 -1 -20 -1 -20 -20
3 -29 34 -22 59 8 29z m82 -228 c0 -5 -5 -10 -11 -10 -5 0 -7 5 -4 10 3 6 8
10 11 10 2 0 4 -4 4 -10z m-460 -19 c0 -12 -28 -22 -34 -12 -3 5 -3 11 1 15 9
9 33 7 33 -3z"/>
<path d="M4257 1373 c18 -2 50 -2 70 0 21 2 7 4 -32 4 -38 0 -55 -2 -38 -4z"/>
<path d="M4216 1127 c-16 -16 -26 -41 -30 -78 -12 -95 -28 -151 -78 -272 -27
-66 -48 -124 -47 -130 3 -23 -1 -40 -7 -34 -4 3 -16 -8 -28 -26 -12 -18 -34
-38 -49 -45 -20 -10 -27 -20 -27 -43 0 -38 27 -49 123 -49 82 0 121 15 125 49
5 30 -13 50 -30 33 -16 -16 -31 -15 -21 1 4 6 6 22 4 35 -5 42 15 52 100 52
128 0 167 -29 109 -82 -26 -23 -29 -31 -20 -48 6 -11 19 -24 30 -30 29 -15
244 -13 284 4 32 13 50 44 37 63 -15 21 -59 40 -101 42 -55 3 -60 7 -26 23 21
9 32 9 46 1 17 -11 -30 107 -134 342 -40 88 -89 166 -102 161 -7 -3 -20 4 -30
15 -13 15 -14 19 -3 19 11 0 11 2 -1 10 -30 19 -99 12 -124 -13z m159 -56 c10
-17 -12 -21 -25 -6 -10 12 -10 15 3 15 9 0 18 -4 22 -9z m-65 -251 c16 -33 30
-64 30 -70 0 -5 -24 -10 -54 -10 -47 0 -54 -3 -59 -22 -9 -32 -18 -17 -19 29
0 49 35 133 56 133 9 0 29 -26 46 -60z m198 -58 c4 -27 -14 -29 -28 -3 -14 27
-13 33 8 29 9 -2 18 -13 20 -26z m75 -209 c-7 -2 -19 -2 -25 0 -7 3 -2 5 12 5
14 0 19 -2 13 -5z m-463 -12 c0 -13 -26 -32 -33 -24 -8 7 11 33 24 33 5 0 9
-4 9 -9z"/>
<path d="M2701 983 c0 -65 4 -127 9 -138 5 -13 9 29 9 112 1 78 -3 134 -9 138
-6 4 -10 -36 -9 -112z"/>
<path d="M1370 499 c0 -161 -2 -179 -20 -202 -18 -22 -18 -25 -2 -20 9 3 47
45 85 94 57 75 67 94 66 126 -1 28 -3 31 -6 13 -7 -37 -84 -125 -94 -108 -5 7
-9 65 -9 128 0 63 -5 122 -10 130 -6 10 -10 -44 -10 -161z"/>
</g>
</svg>
